<?xml version="1.0" encoding="UTF-8"?>
<!--Generator: Apple Native CoreSVG 341-->
<!DOCTYPE svg
PUBLIC "-//W3C//DTD SVG 1.1//EN"
       "http://www.w3.org/Graphics/SVG/1.1/DTD/svg11.dtd">
<svg version="1.1" xmlns="http://www.w3.org/2000/svg" xmlns:xlink="http://www.w3.org/1999/xlink" viewBox="0 0 3300 2200">
 <g id="Notes">
  <rect height="2200" id="artboard" style="fill:white;opacity:1" width="3300" x="0" y="0"/>
  <line style="fill:none;stroke:black;opacity:1;stroke-width:0.5;" x1="263" x2="3036" y1="292" y2="292"/>
  <text style="stroke:none;fill:black;font-family:sans-serif;font-size:13;font-weight:bold;" transform="matrix(1 0 0 1 263 322)">Weight/Scale Variations</text>
  <text style="stroke:none;fill:black;font-family:sans-serif;font-size:13;text-anchor:middle;" transform="matrix(1 0 0 1 559.711 322)">Ultralight</text>
  <text style="stroke:none;fill:black;font-family:sans-serif;font-size:13;text-anchor:middle;" transform="matrix(1 0 0 1 856.422 322)">Thin</text>
  <text style="stroke:none;fill:black;font-family:sans-serif;font-size:13;text-anchor:middle;" transform="matrix(1 0 0 1 1153.13 322)">Light</text>
  <text style="stroke:none;fill:black;font-family:sans-serif;font-size:13;text-anchor:middle;" transform="matrix(1 0 0 1 1449.84 322)">Regular</text>
  <text style="stroke:none;fill:black;font-family:sans-serif;font-size:13;text-anchor:middle;" transform="matrix(1 0 0 1 1746.56 322)">Medium</text>
  <text style="stroke:none;fill:black;font-family:sans-serif;font-size:13;text-anchor:middle;" transform="matrix(1 0 0 1 2043.27 322)">Semibold</text>
  <text style="stroke:none;fill:black;font-family:sans-serif;font-size:13;text-anchor:middle;" transform="matrix(1 0 0 1 2339.98 322)">Bold</text>
  <text style="stroke:none;fill:black;font-family:sans-serif;font-size:13;text-anchor:middle;" transform="matrix(1 0 0 1 2636.69 322)">Heavy</text>
  <text style="stroke:none;fill:black;font-family:sans-serif;font-size:13;text-anchor:middle;" transform="matrix(1 0 0 1 2933.4 322)">Black</text>
  <line style="fill:none;stroke:black;opacity:1;stroke-width:0.5;" x1="263" x2="3036" y1="1903" y2="1903"/>
  <g transform="matrix(0.2 0 0 0.2 263 1933)">
   <path d="m46.2402 4.15039c21.7773 0 39.4531-17.627 39.4531-39.4043s-17.6758-39.4043-39.4531-39.4043c-21.7285 0-39.4043 17.627-39.4043 39.4043s17.6758 39.4043 39.4043 39.4043Zm0-7.42188c-17.6758 0-31.9336-14.3066-31.9336-31.9824s14.2578-31.9824 31.9336-31.9824 31.9824 14.3066 31.9824 31.9824-14.3066 31.9824-31.9824 31.9824Zm-17.9688-31.9824c0 2.14844 1.51367 3.61328 3.75977 3.61328h10.498v10.5957c0 2.19727 1.46484 3.71094 3.61328 3.71094 2.24609 0 3.71094-1.51367 3.71094-3.71094v-10.5957h10.5957c2.19727 0 3.71094-1.46484 3.71094-3.61328 0-2.19727-1.51367-3.71094-3.71094-3.71094h-10.5957v-10.5469c0-2.24609-1.46484-3.75977-3.71094-3.75977-2.14844 0-3.61328 1.51367-3.61328 3.75977v10.5469h-10.498c-2.24609 0-3.75977 1.51367-3.75977 3.71094Z"/>
  </g>
  <g transform="matrix(0.2 0 0 0.2 281.506 1933)">
   <path d="m58.5449 14.5508c27.4902 0 49.8047-22.3145 49.8047-49.8047s-22.3145-49.8047-49.8047-49.8047-49.8047 22.3145-49.8047 49.8047 22.3145 49.8047 49.8047 49.8047Zm0-8.30078c-22.9492 0-41.5039-18.5547-41.5039-41.5039s18.5547-41.5039 41.5039-41.5039 41.5039 18.5547 41.5039 41.5039-18.5547 41.5039-41.5039 41.5039Zm-22.6562-41.5039c0 2.39258 1.66016 4.00391 4.15039 4.00391h14.3555v14.4043c0 2.44141 1.66016 4.15039 4.05273 4.15039 2.44141 0 4.15039-1.66016 4.15039-4.15039v-14.4043h14.4043c2.44141 0 4.15039-1.61133 4.15039-4.00391 0-2.44141-1.70898-4.15039-4.15039-4.15039h-14.4043v-14.3555c0-2.49023-1.70898-4.19922-4.15039-4.19922-2.39258 0-4.05273 1.70898-4.05273 4.19922v14.3555h-14.3555c-2.49023 0-4.15039 1.70898-4.15039 4.15039Z"/>
  </g>
  <g transform="matrix(0.2 0 0 0.2 304.924 1933)">
   <path d="m74.8535 28.3203c35.1074 0 63.623-28.4668 63.623-63.5742s-28.5156-63.623-63.623-63.623-63.5742 28.5156-63.5742 63.623 28.4668 63.5742 63.5742 63.5742Zm0-9.08203c-30.127 0-54.4922-24.3652-54.4922-54.4922s24.3652-54.4922 54.4922-54.4922 54.4922 24.3652 54.4922 54.4922-24.3652 54.4922-54.4922 54.4922Zm-28.8574-54.4922c0 2.58789 1.85547 4.39453 4.58984 4.39453h19.7266v19.7754c0 2.68555 1.85547 4.58984 4.44336 4.58984 2.68555 0 4.54102-1.85547 4.54102-4.58984v-19.7754h19.7754c2.68555 0 4.58984-1.80664 4.58984-4.39453 0-2.73438-1.85547-4.58984-4.58984-4.58984h-19.7754v-19.7266c0-2.73438-1.85547-4.63867-4.54102-4.63867-2.58789 0-4.44336 1.9043-4.44336 4.63867v19.7266h-19.7266c-2.73438 0-4.58984 1.85547-4.58984 4.58984Z"/>
  </g>
  <text style="stroke:none;fill:black;font-family:sans-serif;font-size:13;font-weight:bold;" transform="matrix(1 0 0 1 263 1953)">Design Variations</text>
  <text style="stroke:none;fill:black;font-family:sans-serif;font-size:13;" transform="matrix(1 0 0 1 263 1971)">Symbols are supported in up to nine weights and three scales.</text>
  <text style="stroke:none;fill:black;font-family:sans-serif;font-size:13;" transform="matrix(1 0 0 1 263 1989)">For optimal layout with text and other symbols, vertically align</text>
  <text style="stroke:none;fill:black;font-family:sans-serif;font-size:13;" transform="matrix(1 0 0 1 263 2007)">symbols with the adjacent text.</text>
  <line style="fill:none;stroke:#00AEEF;stroke-width:0.5;opacity:1.0;" x1="776" x2="776" y1="1919" y2="1933"/>
  <g transform="matrix(0.2 0 0 0.2 776 1933)">
   <path d="m16.5527 0.78125c2.58789 0 3.85742-0.976562 4.78516-3.71094l6.29883-17.2363h28.8086l6.29883 17.2363c0.927734 2.73438 2.19727 3.71094 4.73633 3.71094 2.58789 0 4.24805-1.5625 4.24805-4.00391 0-0.830078-0.146484-1.61133-0.537109-2.63672l-22.9004-60.9863c-1.12305-2.97852-3.125-4.49219-6.25-4.49219-3.02734 0-5.07812 1.46484-6.15234 4.44336l-22.9004 61.084c-0.390625 1.02539-0.537109 1.80664-0.537109 2.63672 0 2.44141 1.5625 3.95508 4.10156 3.95508Zm13.4766-28.3691 11.8652-32.8613h0.244141l11.8652 32.8613Z"/>
  </g>
  <line style="fill:none;stroke:#00AEEF;stroke-width:0.5;opacity:1.0;" x1="792.836" x2="792.836" y1="1919" y2="1933"/>
  <text style="stroke:none;fill:black;font-family:sans-serif;font-size:13;font-weight:bold;" transform="matrix(1 0 0 1 776 1953)">Margins</text>
  <text style="stroke:none;fill:black;font-family:sans-serif;font-size:13;" transform="matrix(1 0 0 1 776 1971)">Leading and trailing margins on the left and right side of each symbol</text>
  <text style="stroke:none;fill:black;font-family:sans-serif;font-size:13;" transform="matrix(1 0 0 1 776 1989)">can be adjusted by modifying the x-location of the margin guidelines.</text>
  <text style="stroke:none;fill:black;font-family:sans-serif;font-size:13;" transform="matrix(1 0 0 1 776 2007)">Modifications are automatically applied proportionally to all</text>
  <text style="stroke:none;fill:black;font-family:sans-serif;font-size:13;" transform="matrix(1 0 0 1 776 2025)">scales and weights.</text>
  <g transform="matrix(0.2 0 0 0.2 1289 1933)">
   <path d="m14.209 9.32617 8.49609 8.54492c4.29688 4.3457 9.22852 4.05273 13.8672-1.07422l53.4668-58.9355-4.83398-4.88281-53.0762 58.3984c-1.75781 2.00195-3.41797 2.49023-5.76172 0.146484l-5.85938-5.81055c-2.34375-2.29492-1.80664-4.00391 0.195312-5.81055l57.373-54.0039-4.88281-4.83398-57.959 54.4434c-4.93164 4.58984-5.32227 9.47266-1.02539 13.8184Zm32.0801-90.9668c-2.09961 2.05078-2.24609 4.93164-1.07422 6.88477 1.17188 1.80664 3.4668 2.97852 6.68945 2.14844 7.32422-1.70898 14.9414-2.00195 22.0703 2.68555l-2.92969 7.27539c-1.70898 4.15039-0.830078 7.08008 1.85547 9.81445l11.4746 11.5723c2.44141 2.44141 4.49219 2.53906 7.32422 2.05078l5.32227-0.976562 3.32031 3.36914-0.195312 2.7832c-0.195312 2.49023 0.439453 4.39453 2.88086 6.78711l3.80859 3.71094c2.39258 2.39258 5.46875 2.53906 7.8125 0.195312l14.5508-14.5996c2.34375-2.34375 2.24609-5.32227-0.146484-7.71484l-3.85742-3.80859c-2.39258-2.39258-4.24805-3.17383-6.64062-2.97852l-2.88086 0.244141-3.22266-3.17383 1.2207-5.61523c0.634766-2.83203-0.146484-5.0293-3.07617-7.95898l-10.9863-10.9375c-16.6992-16.6016-38.8672-16.2109-53.3203-1.75781Zm7.4707 1.85547c12.1582-8.88672 28.6133-7.37305 39.7461 3.75977l12.1582 12.0605c1.17188 1.17188 1.36719 2.09961 1.02539 3.80859l-1.61133 7.42188 7.51953 7.42188 4.93164-0.292969c1.26953-0.0488281 1.66016 0.0488281 2.63672 1.02539l2.88086 2.88086-12.207 12.207-2.88086-2.88086c-0.976562-0.976562-1.12305-1.36719-1.07422-2.68555l0.341797-4.88281-7.4707-7.42188-7.61719 1.26953c-1.61133 0.341797-2.34375 0.195312-3.56445-0.976562l-10.0098-10.0098c-1.26953-1.17188-1.41602-2.00195-0.634766-3.85742l4.39453-10.4492c-7.8125-7.27539-17.9688-10.4004-28.125-7.42188-0.78125 0.195312-1.07422-0.439453-0.439453-0.976562Z"/>
  </g>
  <text style="stroke:none;fill:black;font-family:sans-serif;font-size:13;font-weight:bold;" transform="matrix(1 0 0 1 1289 1953)">Exporting</text>
  <text style="stroke:none;fill:black;font-family:sans-serif;font-size:13;" transform="matrix(1 0 0 1 1289 1971)">Symbols should be outlined when exporting to ensure the</text>
  <text style="stroke:none;fill:black;font-family:sans-serif;font-size:13;" transform="matrix(1 0 0 1 1289 1989)">design is preserved when submitting to Xcode.</text>
  <text id="template-version" style="stroke:none;fill:black;font-family:sans-serif;font-size:13;text-anchor:end;" transform="matrix(1 0 0 1 3036 1933)">Template v.2.0</text>
  <text style="stroke:none;fill:black;font-family:sans-serif;font-size:13;text-anchor:end;" transform="matrix(1 0 0 1 3036 1951)">Requires Xcode 12 or greater</text>
  <text id="descriptive-name" style="stroke:none;fill:black;font-family:sans-serif;font-size:13;text-anchor:end;" transform="matrix(1 0 0 1 3036 1969)">Generated from heart.text.clipboard.fill</text>
  <text style="stroke:none;fill:black;font-family:sans-serif;font-size:13;text-anchor:end;" transform="matrix(1 0 0 1 3036 1987)">Typeset at 100.0 points</text>
  <text style="stroke:none;fill:black;font-family:sans-serif;font-size:13;" transform="matrix(1 0 0 1 263 726)">Small</text>
  <text style="stroke:none;fill:black;font-family:sans-serif;font-size:13;" transform="matrix(1 0 0 1 263 1156)">Medium</text>
  <text style="stroke:none;fill:black;font-family:sans-serif;font-size:13;" transform="matrix(1 0 0 1 263 1586)">Large</text>
 </g>
 <g id="Guides">
  <g id="H-reference" style="fill:#27AAE1;stroke:none;" transform="matrix(1 0 0 1 339 696)">
   <path d="M0.993654 0L3.63775 0L29.3281-67.1323L30.0303-67.1323L30.0303-70.459L28.1226-70.459ZM11.6885-24.4799L46.9815-24.4799L46.2315-26.7285L12.4385-26.7285ZM55.1196 0L57.7637 0L30.6382-70.459L29.4326-70.459L29.4326-67.1323Z"/>
  </g>
  <line id="Baseline-S" style="fill:none;stroke:#27AAE1;opacity:1;stroke-width:0.5;" x1="263" x2="3036" y1="696" y2="696"/>
  <line id="Capline-S" style="fill:none;stroke:#27AAE1;opacity:1;stroke-width:0.5;" x1="263" x2="3036" y1="625.541" y2="625.541"/>
  <g id="H-reference" style="fill:#27AAE1;stroke:none;" transform="matrix(1 0 0 1 339 1126)">
   <path d="M0.993654 0L3.63775 0L29.3281-67.1323L30.0303-67.1323L30.0303-70.459L28.1226-70.459ZM11.6885-24.4799L46.9815-24.4799L46.2315-26.7285L12.4385-26.7285ZM55.1196 0L57.7637 0L30.6382-70.459L29.4326-70.459L29.4326-67.1323Z"/>
  </g>
  <line id="Baseline-M" style="fill:none;stroke:#27AAE1;opacity:1;stroke-width:0.5;" x1="263" x2="3036" y1="1126" y2="1126"/>
  <line id="Capline-M" style="fill:none;stroke:#27AAE1;opacity:1;stroke-width:0.5;" x1="263" x2="3036" y1="1055.54" y2="1055.54"/>
  <g id="H-reference" style="fill:#27AAE1;stroke:none;" transform="matrix(1 0 0 1 339 1556)">
   <path d="M0.993654 0L3.63775 0L29.3281-67.1323L30.0303-67.1323L30.0303-70.459L28.1226-70.459ZM11.6885-24.4799L46.9815-24.4799L46.2315-26.7285L12.4385-26.7285ZM55.1196 0L57.7637 0L30.6382-70.459L29.4326-70.459L29.4326-67.1323Z"/>
  </g>
  <line id="Baseline-L" style="fill:none;stroke:#27AAE1;opacity:1;stroke-width:0.5;" x1="263" x2="3036" y1="1556" y2="1556"/>
  <line id="Capline-L" style="fill:none;stroke:#27AAE1;opacity:1;stroke-width:0.5;" x1="263" x2="3036" y1="1485.54" y2="1485.54"/>
  <line id="right-margin" style="fill:none;stroke:#00AEEF;stroke-width:0.5;opacity:1.0;" x1="1503.37" x2="1503.37" y1="1030.79" y2="1150.12"/>
  <line id="left-margin" style="fill:none;stroke:#00AEEF;stroke-width:0.5;opacity:1.0;" x1="1396.32" x2="1396.32" y1="1030.79" y2="1150.12"/>
 </g>
 <g id="Symbols">
  <g id="Black-L" transform="matrix(1 0 0 1 2860.18 1556)">
   <path d="M59.4013-29.4741C58.7679-29.4741 58.0501-29.7946 57.47-30.2139C54.7983-31.8564 43.788-38.6677 43.788-48.2354C43.788-53.8444 47.6118-57.559 52.2406-57.559C55.6999-57.559 58.1845-55.5061 59.3816-53.3711C60.6372-55.5061 63.083-57.559 66.4411-57.559C71.2284-57.559 74.9949-53.8444 74.9949-48.2354C74.9949-38.6677 63.9838-31.5999 61.3141-30.2139C60.7328-29.8726 60.0178-29.4741 59.4013-29.4741ZM46.6131-8.76273C43.8311-8.76273 41.7814-10.8709 41.7814-13.5932C41.7814-16.1791 43.8311-18.2277 46.6131-18.2277L99.9366-18.2277C102.659-18.2277 104.709-16.1791 104.709-13.5932C104.709-10.8709 102.659-8.76273 99.9366-8.76273ZM46.6131 16.0581C43.8519 16.0581 41.7814 13.9303 41.7814 11.286C41.7814 8.62208 43.8311 6.57232 46.6131 6.57232L78.7602 6.57232C81.4253 6.57232 83.4739 8.62208 83.4739 11.286C83.4739 13.9303 81.4045 16.0581 78.7602 16.0581ZM39.8892 40.0156L106.522 40.0156C121.157 40.0156 130.348 30.7668 130.348 15.8947L130.348-78.7277C130.348-93.579 121.157-102.85 106.73-102.85L106.002-102.85C106.82-101.207 107.228-99.2497 107.228-97.1394L107.228-90.2423C107.228-81.3616 101.258-74.9983 92.455-74.9983L53.9558-74.9983C45.1739-74.9983 39.2031-81.3616 39.2031-90.2423L39.2031-97.1394C39.2031-99.2497 39.612-101.207 40.4297-102.85L39.7018-102.85C25.2548-102.85 16.084-93.579 16.084-78.7277L16.084 15.8947C16.084 30.7668 25.2548 40.0156 39.8892 40.0156ZM53.9558-82.9496L92.455-82.9496C96.7245-82.9496 99.298-85.6595 99.298-90.2423L99.298-96.87C99.298-101.454 96.7245-104.163 92.455-104.163L88.6997-104.163C88.1075-112.181 81.4707-118.581 73.2158-118.581C64.9622-118.581 58.3241-112.181 57.7111-104.163L53.9558-104.163C49.6875-104.163 47.1336-101.454 47.1336-96.87L47.1336-90.2423C47.1336-85.6595 49.6875-82.9496 53.9558-82.9496ZM73.2158-97.7259C70.0019-97.7259 67.3908-100.397 67.3908-103.551C67.3908-106.708 70.0019-109.298 73.2158-109.298C76.4298-109.298 79.02-106.708 79.02-103.551C79.02-100.397 76.4298-97.7259 73.2158-97.7259Z"/>
  </g>
  <g id="Heavy-L" transform="matrix(1 0 0 1 2564.51 1556)">
   <path d="M57.9858-29.495C57.4164-29.495 56.7207-29.8111 56.1444-30.2265C52.5846-32.5074 42.0053-39.4847 42.0053-48.8149C42.0053-54.4432 45.8566-58.2681 50.6647-58.2681C54.1283-58.2681 56.6764-56.2207 57.9612-53.8822C59.2907-56.2207 61.8187-58.2681 65.1717-58.2681C70.1294-58.2681 73.9417-54.4432 73.9417-48.8149C73.9417-39.4847 63.3859-32.2349 59.8082-30.2265C59.2263-29.8803 58.5709-29.495 57.9858-29.495ZM45.0573-9.05491C42.4233-9.05491 40.458-11.0648 40.458-13.6487C40.458-16.1187 42.4233-18.0784 45.0573-18.0784L99.3978-18.0784C101.982-18.0784 103.947-16.1187 103.947-13.6487C103.947-11.0648 101.982-9.05491 99.3978-9.05491ZM45.0573 15.6728C42.4534 15.6728 40.458 13.6383 40.458 11.1237C40.458 8.58447 42.4233 6.61916 45.0573 6.61916L77.3838 6.61916C79.9286 6.61916 81.8883 8.58447 81.8883 11.1237C81.8883 13.6383 79.8984 15.6728 77.3838 15.6728ZM38.8 39.3593L105.53 39.3593C119.731 39.3593 128.276 30.7694 128.276 16.3497L128.276-78.6138C128.276-93.0034 119.731-101.629 105.832-101.629L104.819-101.629C105.444-100.317 105.756-98.7457 105.756-97.0765L105.756-90.0742C105.756-81.4843 99.9692-75.3402 91.4485-75.3402L52.8815-75.3402C44.391-75.3402 38.604-81.4843 38.604-90.0742L38.604-97.0765C38.604-98.7457 38.9164-100.317 39.5411-101.629L38.5283-101.629C24.6046-101.629 16.084-93.0034 16.084-78.6138L16.084 16.3497C16.084 30.7694 24.6046 39.3593 38.8 39.3593ZM52.8815-83.0917L91.4485-83.0917C95.5558-83.0917 98.0349-85.6846 98.0349-90.0742L98.0349-96.6898C98.0349-101.085 95.5558-103.672 91.4485-103.672L87.1625-103.672C86.6244-111.455 80.1818-117.679 72.1801-117.679C64.1841-117.679 57.7358-111.455 57.1675-103.672L52.8815-103.672C48.7799-103.672 46.3253-101.085 46.3253-96.6898L46.3253-90.0742C46.3253-85.6846 48.7799-83.0917 52.8815-83.0917ZM72.1801-97.3453C69.0036-97.3453 66.4158-99.9835 66.4158-103.11C66.4158-106.247 69.0036-108.805 72.1801-108.805C75.3566-108.805 77.9143-106.247 77.9143-103.11C77.9143-99.9835 75.3566-97.3453 72.1801-97.3453Z"/>
  </g>
  <g id="Bold-L" transform="matrix(1 0 0 1 2269.07 1556)">
   <path d="M56.3381-29.7566C55.8457-29.7566 55.1881-30.0651 54.6268-30.4655C50.0948-33.3962 39.9415-40.6182 39.9415-49.7308C39.9415-55.3673 43.8237-59.3155 48.8322-59.3155C52.3035-59.3155 54.9359-57.2609 56.3134-54.7135C57.7201-57.2609 60.348-59.3155 63.7009-59.3155C68.8438-59.3155 72.71-55.3673 72.71-49.7308C72.71-40.6182 62.5885-33.138 58.0379-30.4655C57.4635-30.119 56.8774-29.7566 56.3381-29.7566ZM43.1511-9.61728C40.7386-9.61728 38.9106-11.4745 38.9106-13.8445C38.9106-16.1313 40.7386-17.9461 43.1511-17.9461L98.7442-17.9461C101.114-17.9461 102.942-16.1313 102.942-13.8445C102.942-11.4745 101.114-9.61728 98.7442-9.61728ZM43.1511 15.025C40.7766 15.025 38.9106 13.143 38.9106 10.827C38.9106 8.48619 40.7386 6.65817 43.1511 6.65817L75.745 6.65817C78.099 6.65817 79.9138 8.48619 79.9138 10.827C79.9138 13.143 78.061 15.025 75.745 15.025ZM37.4477 38.5448L104.338 38.5448C117.956 38.5448 125.74 30.7323 125.74 16.9256L125.74-78.6096C125.74-92.3783 117.956-100.242 104.718-100.242L103.18-100.242C103.589-99.2999 103.793-98.1605 103.793-96.9848L103.793-89.9264C103.793-81.7796 98.2816-75.9715 90.1888-75.9715L51.5969-75.9715C43.542-75.9715 38.0302-81.7796 38.0302-89.9264L38.0302-96.9848C38.0302-98.1605 38.2346-99.2999 38.6434-100.242L37.1058-100.242C23.8426-100.242 16.084-92.3783 16.084-78.6096L16.084 16.9256C16.084 30.7323 23.8426 38.5448 37.4477 38.5448ZM51.5969-83.395L90.1888-83.395C94.0664-83.395 96.4079-85.8197 96.4079-89.9264L96.4079-96.5042C96.4079-100.624 94.0664-103.036 90.1888-103.036L85.2048-103.036C84.7432-110.504 78.5687-116.49 70.9118-116.49C63.2682-116.49 57.0804-110.504 56.5809-103.036L51.5969-103.036C47.7325-103.036 45.4158-100.624 45.4158-96.5042L45.4158-89.9264C45.4158-85.8197 47.7325-83.395 51.5969-83.395ZM70.9118-96.8393C67.7665-96.8393 65.2019-99.4464 65.2019-102.549C65.2019-105.679 67.7665-108.205 70.9118-108.205C74.0571-108.205 76.5838-105.679 76.5838-102.549C76.5838-99.4464 74.0571-96.8393 70.9118-96.8393Z"/>
  </g>
  <g id="Semibold-L" transform="matrix(1 0 0 1 1973.23 1556)">
   <path d="M55.2023-29.937C54.7628-29.937 54.1315-30.2402 53.5806-30.6302C48.3784-34.0089 38.5188-41.3996 38.5188-50.3622C38.5188-56.0043 42.4222-60.0376 47.5689-60.0376C51.0454-60.0376 53.736-57.978 55.1774-55.2867C56.6374-57.978 59.3342-60.0376 62.687-60.0376C67.9575-60.0376 71.8609-56.0043 71.8609-50.3622C71.8609-41.3996 62.0388-33.7606 56.8175-30.6302C56.2482-30.2836 55.7098-29.937 55.2023-29.937ZM41.8369-10.005C39.5773-10.005 37.8439-11.7569 37.8439-13.9795C37.8439-16.14 39.5773-17.8549 41.8369-17.8549L98.2937-17.8549C100.516-17.8549 102.25-16.14 102.25-13.9795C102.25-11.7569 100.516-10.005 98.2937-10.005ZM41.8369 14.5784C39.6206 14.5784 37.8439 12.8015 37.8439 10.6224C37.8439 8.41843 39.5773 6.68506 41.8369 6.68506L74.6153 6.68506C76.8378 6.68506 78.5526 8.41843 78.5526 10.6224C78.5526 12.8015 76.7944 14.5784 74.6153 14.5784ZM36.5154 37.9833L103.516 37.9833C116.733 37.9833 123.991 30.7066 123.991 17.3226L123.991-78.6067C123.991-91.9473 116.733-99.2859 103.95-99.2859L102.05-99.2859C102.31-98.5988 102.44-97.7571 102.44-96.9215L102.44-89.8244C102.44-81.9831 97.1182-76.4067 89.3203-76.4067L50.7113-76.4067C42.9567-76.4067 37.6346-81.9831 37.6346-89.8244L37.6346-96.9215C37.6346-97.7571 37.7646-98.5988 38.0246-99.2859L36.1251-99.2859C23.3172-99.2859 16.084-91.9473 16.084-78.6067L16.084 17.3226C16.084 30.7066 23.3172 37.9833 36.5154 37.9833ZM50.7113-83.6042L89.3203-83.6042C93.0397-83.6042 95.2862-85.9128 95.2862-89.8244L95.2862-96.3762C95.2862-100.306 93.0397-102.596 89.3203-102.596L83.8551-102.596C83.4464-109.848 77.4566-115.671 70.0375-115.671C62.6368-115.671 56.6286-109.848 56.1764-102.596L50.7113-102.596C47.0104-102.596 44.7887-100.306 44.7887-96.3762L44.7887-89.8244C44.7887-85.9128 47.0104-83.6042 50.7113-83.6042ZM70.0375-96.4904C66.9137-96.4904 64.3651-99.0761 64.3651-102.163C64.3651-105.286 66.9137-107.792 70.0375-107.792C73.1612-107.792 75.6665-105.286 75.6665-102.163C75.6665-99.0761 73.1612-96.4904 70.0375-96.4904Z"/>
  </g>
  <g id="Medium-L" transform="matrix(1 0 0 1 1677.18 1556)">
   <path d="M54.341-30.0737C53.9418-30.0737 53.3303-30.3729 52.7873-30.7551C47.077-34.4735 37.44-41.992 37.44-50.841C37.44-56.4874 41.3595-60.5851 46.611-60.5851C50.0915-60.5851 52.8261-58.5217 54.316-55.7213C55.8164-58.5217 58.5655-60.5851 61.9182-60.5851C67.2855-60.5851 71.217-56.4874 71.217-50.841C71.217-41.992 61.622-34.2326 55.8922-30.7551C55.3267-30.4084 54.8246-30.0737 54.341-30.0737ZM40.8404-10.299C38.6967-10.299 37.0351-11.9711 37.0351-14.0819C37.0351-16.1466 38.6967-17.7858 40.8404-17.7858L97.952-17.7858C100.063-17.7858 101.724-16.1466 101.724-14.0819C101.724-11.9711 100.063-10.299 97.952-10.299ZM40.8404 14.2397C38.7441 14.2397 37.0351 12.5426 37.0351 10.4673C37.0351 8.36706 38.6967 6.70546 40.8404 6.70546L73.7587 6.70546C75.8814 6.70546 77.5205 8.36706 77.5205 10.4673C77.5205 12.5426 75.834 14.2397 73.7587 14.2397ZM35.8086 37.5576L102.893 37.5576C115.805 37.5576 122.665 30.6872 122.665 17.6237L122.665-78.6044C122.665-91.6205 115.805-98.5608 103.367-98.5608L101.194-98.5608C101.341-98.0673 101.414-97.4512 101.414-96.8735L101.414-89.7471C101.414-82.1374 96.236-76.7367 88.6618-76.7367L50.0397-76.7367C42.5129-76.7367 37.3346-82.1374 37.3346-89.7471L37.3346-96.8735C37.3346-97.4512 37.4082-98.0673 37.5554-98.5608L35.3816-98.5608C22.9189-98.5608 16.084-91.6205 16.084-78.6044L16.084 17.6237C16.084 30.6872 22.9189 37.5576 35.8086 37.5576ZM50.0397-83.7628L88.6618-83.7628C92.2611-83.7628 94.4357-85.9834 94.4357-89.7471L94.4357-96.2792C94.4357-100.065 92.2611-102.264 88.6618-102.264L82.8318-102.264C82.463-109.351 76.6134-115.049 69.3745-115.049C62.1581-115.049 56.286-109.351 55.8697-102.264L50.0397-102.264C46.4629-102.264 44.3133-100.065 44.3133-96.2792L44.3133-89.7471C44.3133-85.9834 46.4629-83.7628 50.0397-83.7628ZM69.3745-96.2259C66.267-96.2259 63.7305-98.7953 63.7305-101.87C63.7305-104.989 66.267-107.478 69.3745-107.478C72.4819-107.478 74.971-104.989 74.971-101.87C74.971-98.7953 72.4819-96.2259 69.3745-96.2259Z"/>
  </g>
  <g id="Regular-L" transform="matrix(1 0 0 1 1381.33 1556)">
   <path d="M53.2176-30.2521C52.8708-30.2521 52.2853-30.5461 51.7526-30.918C45.3794-35.0794 36.0328-42.7648 36.0328-51.4655C36.0328-57.1174 39.9734-61.2993 45.3615-61.2993C48.8473-61.2993 51.6394-59.2309 53.1925-56.2881C54.7456-59.2309 57.5628-61.2993 60.9153-61.2993C66.409-61.2993 70.3772-57.1174 70.3772-51.4655C70.3772-42.7648 61.0783-34.8484 54.6852-30.918C54.1248-30.5712 53.6699-30.2521 53.2176-30.2521ZM39.5407-10.6824C37.5481-10.6824 35.9801-12.2504 35.9801-14.2154C35.9801-16.1553 37.5481-17.6956 39.5407-17.6956L97.5064-17.6956C99.4714-17.6956 101.039-16.1553 101.039-14.2154C101.039-12.2504 99.4714-10.6824 97.5064-10.6824ZM39.5407 13.798C37.6008 13.798 35.9801 12.2049 35.9801 10.265C35.9801 8.30004 37.5481 6.73205 39.5407 6.73205L72.6414 6.73205C74.634 6.73205 76.1743 8.30004 76.1743 10.265C76.1743 12.2049 74.5812 13.798 72.6414 13.798ZM34.8866 37.0023L102.08 37.0023C114.595 37.0023 120.935 30.6619 120.935 18.0163L120.935-78.6015C120.935-91.1943 114.595-97.6151 102.608-97.6151L100.076-97.6151C100.076-97.3739 100.076-97.0522 100.076-96.8109L100.076-89.6463C100.076-82.3387 95.0854-77.1671 87.8029-77.1671L49.1638-77.1671C41.9341-77.1671 36.9433-82.3387 36.9433-89.6463L36.9433-96.8109C36.9433-97.0522 36.9433-97.3739 36.9433-97.6151L34.4117-97.6151C22.3993-97.6151 16.084-91.1943 16.084-78.6015L16.084 18.0163C16.084 30.6619 22.3993 37.0023 34.8866 37.0023ZM49.1638-83.9697L87.8029-83.9697C91.2456-83.9697 93.3263-86.0755 93.3263-89.6463L93.3263-96.1527C93.3263-99.7512 91.2456-101.829 87.8029-101.829L81.497-101.829C81.1804-108.703 75.5135-114.239 68.5097-114.239C61.5336-114.239 55.8391-108.703 55.4697-101.829L49.1638-101.829C45.7487-101.829 43.6931-99.7512 43.6931-96.1527L43.6931-89.6463C43.6931-86.0755 45.7487-83.9697 49.1638-83.9697ZM68.5097-95.8808C65.4236-95.8808 62.9029-98.4292 62.9029-101.488C62.9029-104.601 65.4236-107.069 68.5097-107.069C71.5959-107.069 74.0638-104.601 74.0638-101.488C74.0638-98.4292 71.5959-95.8808 68.5097-95.8808Z"/>
  </g>
  <g id="Light-L" transform="matrix(1 0 0 1 1085.41 1556)">
   <path d="M52.7595-31.9507C52.4509-31.9507 51.9609-32.2256 51.5045-32.5212C45.284-36.2246 35.5366-44.3298 35.5366-53.374C35.5366-58.9305 39.4772-63.1124 44.8653-63.1124C48.3701-63.1124 51.2577-60.9486 52.7726-58.1394C54.2875-60.9486 57.162-63.1124 60.5527-63.1124C66.0082-63.1124 69.9955-58.9305 69.9955-53.374C69.9955-44.3298 60.1622-36.2225 54.0744-32.5212C53.5713-32.2126 53.1355-31.9507 52.7595-31.9507ZM38.3574-12.3619C36.7656-12.3619 35.5029-13.6245 35.5029-15.1696C35.5029-16.7278 36.7656-17.9437 38.3574-17.9437L97.1438-17.9437C98.6889-17.9437 99.9515-16.7278 99.9515-15.1696C99.9515-13.6245 98.6889-12.3619 97.1438-12.3619ZM38.3574 12.2521C36.7992 12.2521 35.5029 11.0025 35.5029 9.44437C35.5029 7.89925 36.7656 6.63663 38.3574 6.63663L71.9352 6.63663C73.5271 6.63663 74.7429 7.89925 74.7429 9.44437C74.7429 11.0025 73.4934 12.2521 71.9352 12.2521ZM33.9323 36.4297L101.488 36.4297C113.316 36.4297 119.37 30.3756 119.37 18.4935L119.37-79.4795C119.37-91.3279 113.316-97.4625 101.825-97.4625L97.824-97.4625C97.824-97.2212 97.824-96.8995 97.824-96.6583L97.824-89.9326C97.824-83.4647 93.3295-78.942 86.8486-78.942L48.5722-78.942C42.1249-78.942 37.6304-83.4647 37.6304-89.9326L37.6304-96.6583C37.6304-96.8995 37.6304-97.2212 37.6304-97.4625L33.6292-97.4625C22.1512-97.4625 16.084-91.3279 16.084-79.4795L16.084 18.4935C16.084 30.3756 22.1512 36.4297 33.9323 36.4297ZM48.5722-85.0003L86.8486-85.0003C89.9478-85.0003 91.7995-86.8389 91.7995-89.9326L91.7995-96.2672C91.7995-99.4076 89.9478-101.2 86.8486-101.2L79.7984-101.2C79.5963-107.71 74.2921-112.96 67.7272-112.96C61.2091-112.96 55.8582-107.71 55.6224-101.2L48.5722-101.2C45.5197-101.2 43.655-99.4076 43.655-96.2672L43.655-89.9326C43.655-86.8389 45.5197-85.0003 48.5722-85.0003ZM67.7272-95.3083C64.5647-95.3083 62.025-97.8948 62.025-101.011C62.025-104.22 64.5647-106.726 67.7272-106.726C70.8897-106.726 73.3958-104.22 73.3958-101.011C73.3958-97.8948 70.8897-95.3083 67.7272-95.3083Z"/>
  </g>
  <g id="Thin-L" transform="matrix(1 0 0 1 789.73 1556)">
   <path d="M52.1537-34.1972C51.8956-34.1972 51.5317-34.4469 51.1763-34.6415C45.1578-37.7391 34.8803-46.3997 34.8803-55.8982C34.8803-61.3285 38.8209-65.5104 44.209-65.5104C47.7391-65.5104 50.7529-63.2204 52.2173-60.5879C53.6817-63.2204 56.6319-65.5104 60.0731-65.5104C65.4781-65.5104 69.4907-61.3285 69.4907-55.8982C69.4907-46.3997 58.9506-38.0399 53.2667-34.6415C52.8393-34.3834 52.4287-34.1972 52.1537-34.1972ZM36.7924-14.5832C35.7306-14.5832 34.8719-15.4419 34.8719-16.4317C34.8719-17.4851 35.7306-18.2718 36.7924-18.2718L96.6642-18.2718C97.654-18.2718 98.5127-17.4851 98.5127-16.4317C98.5127-15.4419 97.654-14.5832 96.6642-14.5832ZM36.7924 10.2075C35.7391 10.2075 34.8719 9.41231 34.8719 8.35897C34.8719 7.36918 35.7306 6.51042 36.7924 6.51042L71.0012 6.51042C72.063 6.51042 72.8498 7.36918 72.8498 8.35897C72.8498 9.41231 72.0546 10.2075 71.0012 10.2075ZM32.6702 35.6725L100.706 35.6725C111.625 35.6725 117.301 29.997 117.301 19.1245L117.301-80.6406C117.301-91.5046 111.625-97.2605 100.79-97.2605L94.8455-97.2605C94.8455-97.0193 94.8455-96.6976 94.8455-96.4563L94.8455-90.3112C94.8455-84.954 91.0073-81.2895 85.5865-81.2895L47.7897-81.2895C42.3774-81.2895 38.5391-84.954 38.5391-90.3112L38.5391-96.4563C38.5391-96.6976 38.5391-97.0193 38.5391-97.2605L32.5943-97.2605C21.823-97.2605 16.084-91.5046 16.084-80.6406L16.084 19.1245C16.084 29.997 21.823 35.6725 32.6702 35.6725ZM47.7897-86.3633L85.5865-86.3633C88.2314-86.3633 89.7802-87.8486 89.7802-90.3112L89.7802-96.4186C89.7802-98.9533 88.2314-100.367 85.5865-100.367L77.5518-100.367C77.5012-106.397 72.6766-111.269 66.6923-111.269C60.78-111.269 55.8834-106.397 55.8244-100.367L47.7897-100.367C45.2168-100.367 43.6045-98.9533 43.6045-96.4186L43.6045-90.3112C43.6045-87.8486 45.2168-86.3633 47.7897-86.3633ZM66.6923-94.551C63.4288-94.551 60.8638-97.188 60.8638-100.379C60.8638-103.715 63.4288-106.272 66.6923-106.272C69.9558-106.272 72.5124-103.715 72.5124-100.379C72.5124-97.188 69.9558-94.551 66.6923-94.551Z"/>
  </g>
  <g id="Ultralight-L" transform="matrix(1 0 0 1 493.549 1556)">
   <path d="M51.8434-35.3479C51.6112-35.3479 51.312-35.5846 51.0082-35.7275C45.0931-38.5148 34.5442-47.4598 34.5442-57.1911C34.5442-62.5568 38.4848-66.7386 43.8729-66.7386C47.4159-66.7386 50.4943-64.3839 51.9329-61.842C53.3714-64.3839 56.3604-66.7386 59.8275-66.7386C65.2066-66.7386 69.2321-62.5568 69.2321-57.1911C69.2321-47.4598 58.3301-38.9708 52.853-35.7275C52.4643-35.4952 52.0667-35.3479 51.8434-35.3479ZM35.9908-15.7209C35.2006-15.7209 34.5487-16.3728 34.5487-17.0782C34.5487-17.8729 35.2006-18.4399 35.9908-18.4399L96.4185-18.4399C97.1239-18.4399 97.7758-17.8729 97.7758-17.0782C97.7758-16.3728 97.1239-15.7209 96.4185-15.7209ZM35.9908 9.1603C35.1961 9.1603 34.5487 8.5978 34.5487 7.80303C34.5487 7.09767 35.2006 6.44577 35.9908 6.44577L70.5229 6.44577C71.3132 6.44577 71.8801 7.09767 71.8801 7.80303C71.8801 8.5978 71.3177 9.1603 70.5229 9.1603ZM32.0238 35.2846L100.305 35.2846C110.759 35.2846 116.24 29.803 116.24 19.4477L116.24-81.2353C116.24-91.5951 110.759-97.1571 100.26-97.1571L93.3199-97.1571C93.3199-96.9158 93.3199-96.5942 93.3199-96.3529L93.3199-90.5052C93.3199-85.7168 89.8178-82.4919 84.9401-82.4919L47.3889-82.4919C42.5066-82.4919 39.0046-85.7168 39.0046-90.5052L39.0046-96.3529C39.0046-96.5942 39.0046-96.9158 39.0046-97.1571L32.0642-97.1571C21.655-97.1571 16.084-91.5951 16.084-81.2353L16.084 19.4477C16.084 29.803 21.655 35.2846 32.0238 35.2846ZM47.3889-87.0615L84.9401-87.0615C87.3522-87.0615 88.7459-88.3657 88.7459-90.5052L88.7459-96.4962C88.7459-98.7206 87.3522-99.9399 84.9401-99.9399L76.4012-99.9399C76.4281-105.725 71.8491-110.403 66.1622-110.403C60.5602-110.403 55.8963-105.725 55.9278-99.9399L47.3889-99.9399C45.0617-99.9399 43.5786-98.7206 43.5786-96.4962L43.5786-90.5052C43.5786-88.3657 45.0617-87.0615 47.3889-87.0615ZM66.1622-94.1631C62.8471-94.1631 60.2691-96.826 60.2691-100.056C60.2691-103.456 62.8471-106.039 66.1622-106.039C69.4774-106.039 72.0598-103.456 72.0598-100.056C72.0598-96.826 69.4774-94.1631 66.1622-94.1631Z"/>
  </g>
  <g id="Black-M" transform="matrix(1 0 0 1 2875.89 1126)">
   <path d="M47.1751-30.9827C46.6346-30.9827 46.0725-31.2322 45.63-31.5501C44.3442-32.212 35.3893-37.4031 35.3893-45.0663C35.3893-49.3823 38.328-52.1654 41.7602-52.1654C44.439-52.1654 46.3223-50.5573 47.1693-49.0961C48.0734-50.5573 49.9054-52.1654 52.5164-52.1654C56.0738-52.1654 58.9551-49.3823 58.9551-45.0663C58.9551-37.4031 49.9607-32.0579 48.7141-31.5501C48.2719-31.2951 47.6694-30.9827 47.1751-30.9827ZM37.2898-14.701C35.0617-14.701 33.4425-16.3774 33.4425-18.5486C33.4425-20.5999 35.0617-22.2195 37.2898-22.2195L77.839-22.2195C80.0102-22.2195 81.6295-20.5999 81.6295-18.5486C81.6295-16.3774 80.0102-14.701 77.839-14.701ZM37.2898 4.62687C35.0672 4.62687 33.4425 2.94475 33.4425 0.836358C33.4425-1.27781 35.0617-2.89705 37.2898-2.89705L62.106-2.89705C64.2199-2.89705 65.8395-1.27781 65.8395 0.836358C65.8395 2.94475 64.2144 4.62687 62.106 4.62687ZM31.7106 23.5525L83.2987 23.5525C94.9181 23.5525 102.554 15.8595 102.554 4.05214L102.554-69.1462C102.554-80.9481 94.9181-88.6462 83.3537-88.6462L82.8355-88.6462C83.6349-87.089 84.0346-85.2411 84.0346-83.2271L84.0346-78.0335C84.0346-71.0171 79.3181-65.9868 72.3645-65.9868L42.6448-65.9868C35.6968-65.9868 30.9803-71.0171 30.9803-78.0335L30.9803-83.2271C30.9803-85.2411 31.38-87.089 32.1793-88.6462L31.6612-88.6462C20.091-88.6462 12.4609-80.9481 12.4609-69.1462L12.4609 4.05214C12.4609 15.8595 20.091 23.5525 31.7106 23.5525ZM42.6448-72.2179L72.3645-72.2179C75.7651-72.2179 77.809-74.3817 77.809-78.0335L77.809-83.1554C77.809-86.807 75.7651-88.971 72.3645-88.971L69.8103-88.971C69.3206-95.3365 64.061-100.408 57.5074-100.408C50.9536-100.408 45.6943-95.3365 45.1991-88.971L42.6448-88.971C39.244-88.971 37.2059-86.807 37.2059-83.1554L37.2059-78.0335C37.2059-74.3817 39.244-72.2179 42.6448-72.2179ZM57.5074-83.8977C54.9749-83.8977 52.9296-85.9998 52.9296-88.4755C52.9296-90.9507 54.9749-92.9905 57.5074-92.9905C60.04-92.9905 62.0798-90.9507 62.0798-88.4755C62.0798-85.9998 60.04-83.8977 57.5074-83.8977Z"/>
  </g>
  <g id="Heavy-M" transform="matrix(1 0 0 1 2580.12 1126)">
   <path d="M45.8336-30.8465C45.3522-30.8465 44.8028-31.0934 44.3571-31.4145C42.1889-32.7427 33.6923-38.0574 33.6923-45.4567C33.6923-49.8004 36.658-52.6913 40.2654-52.6913C42.9467-52.6913 44.8833-51.0973 45.8195-49.4249C46.7993-51.0973 48.7064-52.6913 51.309-52.6913C55.0364-52.6913 57.9608-49.8004 57.9608-45.4567C57.9608-38.0574 49.4607-32.5519 47.2983-31.4145C46.8503-31.1512 46.3043-30.8465 45.8336-30.8465ZM35.8781-14.8317C33.7577-14.8317 32.1928-16.4402 32.1928-18.5148C32.1928-20.488 33.7577-22.0506 35.8781-22.0506L77.3457-22.0506C79.4203-22.0506 80.9852-20.488 80.9852-18.5148C80.9852-16.4402 79.4203-14.8317 77.3457-14.8317ZM35.8781 4.39281C33.7741 4.39281 32.1928 2.7702 32.1928 0.753363C32.1928-1.27761 33.7577-2.84247 35.8781-2.84247L60.8257-2.84247C62.8589-2.84247 64.4215-1.27761 64.4215 0.753363C64.4215 2.7702 62.8425 4.39281 60.8257 4.39281ZM30.7339 22.9637L82.3841 22.9637C93.6418 22.9637 100.673 15.8885 100.673 4.45293L100.673-68.9539C100.673-80.3731 93.6418-87.467 82.5481-87.467L81.8871-87.467C82.4978-86.2331 82.8031-84.7625 82.8031-83.1797L82.8031-77.8428C82.8031-71.0332 78.2205-66.1572 71.4686-66.1572L41.6493-66.1572C34.9139-66.1572 30.3312-71.0332 30.3312-77.8428L30.3312-83.1797C30.3312-84.7625 30.6366-86.2331 31.2473-87.467L30.5862-87.467C19.4784-87.467 12.4609-80.3731 12.4609-68.9539L12.4609 4.45293C12.4609 15.8885 19.4784 22.9637 30.7339 22.9637ZM41.6493-72.2616L71.4686-72.2616C74.7424-72.2616 76.7151-74.3357 76.7151-77.8428L76.7151-82.9687C76.7151-86.478 74.7424-88.5498 71.4686-88.5498L68.4643-88.5498C68.0169-94.7184 62.9137-99.6439 56.5672-99.6439C50.223-99.6439 45.1175-94.7184 44.6536-88.5498L41.6493-88.5498C38.3778-88.5498 36.4193-86.478 36.4193-82.9687L36.4193-77.8428C36.4193-74.3357 38.3778-72.2616 41.6493-72.2616ZM56.5672-83.5784C54.0783-83.5784 52.0574-85.6453 52.0574-88.0882C52.0574-90.5357 54.0783-92.5403 56.5672-92.5403C59.056-92.5403 61.0606-90.5357 61.0606-88.0882C61.0606-85.6453 59.056-83.5784 56.5672-83.5784Z"/>
  </g>
  <g id="Bold-M" transform="matrix(1 0 0 1 2284.46 1126)">
   <path d="M44.333-30.694C43.9176-30.694 43.3825-30.9381 42.9331-31.2629C39.7779-33.3363 31.7941-38.7893 31.7941-45.8934C31.7941-50.2681 34.7899-53.2795 38.5932-53.2795C41.2774-53.2795 43.2735-51.7014 44.3095-49.7928C45.374-51.7014 47.3651-53.2795 49.9584-53.2795C53.876-53.2795 56.8484-50.2681 56.8484-45.8934C56.8484-38.7893 48.9014-33.1045 45.7145-31.2629C45.26-30.9902 44.7771-30.694 44.333-30.694ZM34.299-14.9779C32.2988-14.9779 30.7948-16.5105 30.7948-18.4769C30.7948-20.3628 32.2988-21.8617 34.299-21.8617L76.794-21.8617C78.7604-21.8617 80.2644-20.3628 80.2644-18.4769C80.2644-16.5105 78.7604-14.9779 76.794-14.9779ZM34.299 4.13099C32.3275 4.13099 30.7948 2.57493 30.7948 0.660521C30.7948-1.27738 32.2988-2.7814 34.299-2.7814L59.3934-2.7814C61.3364-2.7814 62.8353-1.27738 62.8353 0.660521C62.8353 2.57493 61.3078 4.13099 59.3934 4.13099ZM29.6412 22.3051L81.3608 22.3051C92.2142 22.3051 98.5698 15.921 98.5698 4.90127L98.5698-68.7388C98.5698-79.7299 92.2142-86.1478 81.6471-86.1478L80.826-86.1478C81.2257-85.2757 81.4255-84.2271 81.4255-83.1267L81.4255-77.6294C81.4255-71.0512 76.9926-66.3478 70.4664-66.3478L40.5356-66.3478C34.0381-66.3478 29.6052-71.0512 29.6052-77.6294L29.6052-83.1267C29.6052-84.2271 29.805-85.2757 30.2047-86.1478L29.3836-86.1478C18.7931-86.1478 12.4609-79.7299 12.4609-68.7388L12.4609 4.90127C12.4609 15.921 18.7931 22.3051 29.6412 22.3051ZM40.5356-72.3106L70.4664-72.3106C73.5983-72.3106 75.4914-74.2843 75.4914-77.6294L75.4914-82.7597C75.4914-86.1099 73.5983-88.0786 70.4664-88.0786L66.9587-88.0786C66.5585-94.0271 61.6302-98.789 55.5154-98.789C49.4056-98.789 44.4722-94.0271 44.0434-88.0786L40.5356-88.0786C37.409-88.0786 35.5393-86.1099 35.5393-82.7597L35.5393-77.6294C35.5393-74.2843 37.409-72.3106 40.5356-72.3106ZM55.5154-83.2213C53.0754-83.2213 51.0817-85.2486 51.0817-87.655C51.0817-90.0715 53.0754-92.0366 55.5154-92.0366C57.9554-92.0366 59.9204-90.0715 59.9204-87.655C59.9204-85.2486 57.9554-83.2213 55.5154-83.2213Z"/>
  </g>
  <g id="Semibold-M" transform="matrix(1 0 0 1 1988.48 1126)">
   <path d="M43.2985-30.589C42.9285-30.589 42.4033-30.8311 41.9515-31.1583C38.1158-33.7456 30.4854-39.294 30.4854-46.1945C30.4854-50.5905 33.5021-53.6851 37.4404-53.6851C40.1266-53.6851 42.1638-52.1179 43.2685-50.0464C44.3915-52.1179 46.4404-53.6851 49.0272-53.6851C53.076-53.6851 56.0816-50.5905 56.0816-46.1945C56.0816-39.294 48.5157-33.4855 44.6227-31.1583C44.1637-30.8792 43.7243-30.589 43.2985-30.589ZM33.2103-15.0787C31.2932-15.0787 29.8311-16.5589 29.8311-18.4508C29.8311-20.2764 31.2932-21.7314 33.2103-21.7314L76.4136-21.7314C78.3055-21.7314 79.7675-20.2764 79.7675-18.4508C79.7675-16.5589 78.3055-15.0787 76.4136-15.0787ZM33.2103 3.95049C31.3302 3.95049 29.8311 2.44032 29.8311 0.596516C29.8311-1.27722 31.2932-2.7393 33.2103-2.7393L58.406-2.7393C60.2868-2.7393 61.7418-1.27722 61.7418 0.596516C61.7418 2.44032 60.2498 3.95049 58.406 3.95049ZM28.888 21.8511L80.6554 21.8511C91.2299 21.8511 97.1195 15.9434 97.1195 5.21035L97.1195-68.5905C97.1195-79.2864 91.2299-85.2383 81.0259-85.2383L80.0946-85.2383C80.3488-84.6156 80.4758-83.858 80.4758-83.0901L80.4758-77.4823C80.4758-71.0636 76.1462-66.4793 69.7755-66.4793L39.7679-66.4793C33.4343-66.4793 29.1046-71.0636 29.1046-77.4823L29.1046-83.0901C29.1046-83.858 29.2317-84.6156 29.4859-85.2383L28.5546-85.2383C18.3206-85.2383 12.4609-79.2864 12.4609-68.5905L12.4609 5.21035C12.4609 15.9434 18.3206 21.8511 28.888 21.8511ZM39.7679-72.3443L69.7755-72.3443C72.8095-72.3443 74.6478-74.2489 74.6478-77.4823L74.6478-82.6157C74.6478-85.8562 72.8095-87.7537 69.7755-87.7537L65.9207-87.7537C65.5532-93.5504 60.7455-98.1997 54.7902-98.1997C48.8421-98.1997 44.0273-93.5504 43.6227-87.7537L39.7679-87.7537C36.741-87.7537 34.9326-85.8562 34.9326-82.6157L34.9326-77.4823C34.9326-74.2489 36.741-72.3443 39.7679-72.3443ZM54.7902-82.9751C52.3839-82.9751 50.409-84.9752 50.409-87.3563C50.409-89.7515 52.3839-91.6894 54.7902-91.6894C57.1966-91.6894 59.1344-89.7515 59.1344-87.3563C59.1344-84.9752 57.1966-82.9751 54.7902-82.9751Z"/>
  </g>
  <g id="Medium-M" transform="matrix(1 0 0 1 1692.32 1126)">
   <path d="M42.5141-30.5093C42.1786-30.5093 41.6609-30.7499 41.2071-31.079C36.8555-34.0559 29.4932-39.6766 29.4932-46.4228C29.4932-50.8349 32.5256-53.9926 36.5664-53.9926C39.2541-53.9926 41.3223-52.4337 42.4792-50.2387C43.6465-52.4337 45.7392-53.9926 48.3212-53.9926C52.4694-53.9926 55.5001-50.8349 55.5001-46.4228C55.5001-39.6766 48.2234-33.7744 43.7948-31.079C43.3324-30.795 42.9261-30.5093 42.5141-30.5093ZM32.3848-15.1551C30.5306-15.1551 29.1003-16.5956 29.1003-18.431C29.1003-20.211 30.5306-21.6327 32.3848-21.6327L76.1251-21.6327C77.9605-21.6327 79.3908-20.211 79.3908-18.431C79.3908-16.5956 77.9605-15.1551 76.1251-15.1551ZM32.3848 3.81363C30.574 3.81363 29.1003 2.33824 29.1003 0.547986C29.1003-1.2771 30.5306-2.70738 32.3848-2.70738L57.6573-2.70738C59.491-2.70738 60.9126-1.2771 60.9126 0.547986C60.9126 2.33824 59.4475 3.81363 57.6573 3.81363ZM28.3168 21.5068L80.1206 21.5068C90.4837 21.5068 96.0199 15.9603 96.0199 5.44471L96.0199-68.478C96.0199-78.9502 90.4837-84.5487 80.5548-84.5487L79.5399-84.5487C79.6838-84.1152 79.7558-83.5782 79.7558-83.0624L79.7558-77.3708C79.7558-71.073 75.5044-66.5789 69.2517-66.5789L39.1857-66.5789C32.9765-66.5789 28.7251-71.073 28.7251-77.3708L28.7251-83.0624C28.7251-83.5782 28.797-84.1152 28.9409-84.5487L27.926-84.5487C17.9623-84.5487 12.4609-78.9502 12.4609-68.478L12.4609 5.44471C12.4609 15.9603 17.9623 21.5068 28.3168 21.5068ZM39.1857-72.3699L69.2517-72.3699C72.2114-72.3699 74.0082-74.222 74.0082-77.3708L74.0082-82.5064C74.0082-85.6638 72.2114-87.5074 69.2517-87.5074L65.1336-87.5074C64.7909-93.189 60.0746-97.7528 54.2404-97.7528C48.4148-97.7528 43.69-93.189 43.3038-87.5074L39.1857-87.5074C36.2346-87.5074 34.4726-85.6638 34.4726-82.5064L34.4726-77.3708C34.4726-74.222 36.2346-72.3699 39.1857-72.3699ZM54.2404-82.7884C51.8596-82.7884 49.899-84.7679 49.899-87.1298C49.899-89.5089 51.8596-91.4261 54.2404-91.4261C56.6212-91.4261 58.5384-89.5089 58.5384-87.1298C58.5384-84.7679 56.6212-82.7884 54.2404-82.7884Z"/>
  </g>
  <g id="Regular-M" transform="matrix(1 0 0 1 1396.32 1126)">
   <path d="M41.4909-30.4054C41.2005-30.4054 40.6925-30.644 40.2363-30.9756C35.2117-34.4607 28.1989-40.1756 28.1989-46.7206C28.1989-51.1538 31.2518-54.3937 35.4263-54.3937C38.1159-54.3937 40.2247-52.8456 41.4497-50.4896C42.6747-52.8456 44.8247-54.3937 47.4003-54.3937C51.6782-54.3937 54.7417-51.1538 54.7417-46.7206C54.7417-40.1756 47.842-34.1512 42.7149-30.9756C42.2481-30.6852 41.8848-30.4054 41.4909-30.4054ZM31.3081-15.2548C29.536-15.2548 28.1472-16.6436 28.1472-18.4052C28.1472-20.1256 29.536-21.5039 31.3081-21.5039L75.7489-21.5039C77.5106-21.5039 78.8994-20.1256 78.8994-18.4052C78.8994-16.6436 77.5106-15.2548 75.7489-15.2548ZM31.3081 3.63511C29.5877 3.63511 28.1472 2.20511 28.1472 0.484684C28.1472-1.27694 29.536-2.66574 31.3081-2.66574L56.6807-2.66574C58.4529-2.66574 59.8311-1.27694 59.8311 0.484684C59.8311 2.20511 58.4011 3.63511 56.6807 3.63511ZM27.5719 21.0578L79.4229 21.0578C89.5103 21.0578 94.5856 15.9825 94.5856 5.7504L94.5856-68.3313C94.5856-78.5117 89.5103-83.6493 79.9405-83.6493L78.8165-83.6493C78.8165-83.4624 78.8165-83.2132 78.8165-83.0262L78.8165-77.2254C78.8165-71.0853 74.6672-66.7089 68.5683-66.7089L38.4264-66.7089C32.3793-66.7089 28.23-71.0853 28.23-77.2254L28.23-83.0262C28.23-83.2132 28.23-83.4624 28.23-83.6493L27.1061-83.6493C17.4951-83.6493 12.4609-78.5117 12.4609-68.3313L12.4609 5.7504C12.4609 15.9825 17.4951 21.0578 27.5719 21.0578ZM38.4264-72.4033L68.5683-72.4033C71.4314-72.4033 73.1739-74.187 73.1739-77.2254L73.1739-82.364C73.1739-85.4129 71.4314-87.1861 68.5683-87.1861L64.1071-87.1861C63.7965-92.7177 59.1995-97.1699 53.5233-97.1699C47.8575-97.1699 43.25-92.7177 42.8877-87.1861L38.4264-87.1861C35.574-87.1861 33.8726-85.4129 33.8726-82.364L33.8726-77.2254C33.8726-74.187 35.574-72.4033 38.4264-72.4033ZM53.5233-82.5449C51.1758-82.5449 49.2338-84.4974 49.2338-86.8344C49.2338-89.1924 51.1758-91.0826 53.5233-91.0826C55.8707-91.0826 57.761-89.1924 57.761-86.8344C57.761-84.4974 55.8707-82.5449 53.5233-82.5449Z"/>
  </g>
  <g id="Light-M" transform="matrix(1 0 0 1 1100.31 1126)">
   <path d="M41.0803-31.9282C40.8241-31.9282 40.4016-32.1498 40.0138-32.413C35.1261-35.4874 27.754-41.5787 27.754-48.4317C27.754-52.7794 30.807-56.0192 34.9814-56.0192C37.6881-56.0192 39.8825-54.3856 41.0733-52.1493C42.264-54.3856 44.4654-56.0192 47.0752-56.0192C51.3189-56.0192 54.3995-52.7794 54.3995-48.4317C54.3995-41.5787 47.0207-35.3832 42.1674-32.413C41.7519-32.1568 41.4057-31.9282 41.0803-31.9282ZM30.2473-16.7605C28.8344-16.7605 27.7194-17.8755 27.7194-19.2607C27.7194-20.6389 28.8344-21.7263 30.2473-21.7263L75.4238-21.7263C76.809-21.7263 77.924-20.6389 77.924-19.2607C77.924-17.8755 76.809-16.7605 75.4238-16.7605ZM30.2473 2.24913C28.8691 2.24913 27.7194 1.12712 27.7194-0.251086C27.7194-1.63627 28.8344-2.7513 30.2473-2.7513L56.0476-2.7513C57.4604-2.7513 58.5478-1.63627 58.5478-0.251086C58.5478 1.12712 57.4258 2.24913 56.0476 2.24913ZM26.7163 20.5445L78.8925 20.5445C88.3638 20.5445 93.1825 15.7258 93.1825 6.17817L93.1825-69.1184C93.1825-78.6314 88.3638-83.5124 79.2389-83.5124L76.7974-83.5124C76.7974-83.3255 76.7974-83.0763 76.7974-82.8893L76.7974-77.482C76.7974-72.0948 73.093-68.3002 67.7128-68.3002L37.896-68.3002C32.5504-68.3002 28.846-72.0948 28.846-77.482L28.846-82.8893C28.846-83.0763 28.846-83.3255 28.846-83.5124L26.4045-83.5124C17.2726-83.5124 12.4609-78.6314 12.4609-69.1184L12.4609 6.17817C12.4609 15.7258 17.2726 20.5445 26.7163 20.5445ZM37.896-73.3272L67.7128-73.3272C70.2678-73.3272 71.805-74.8714 71.805-77.482L71.805-82.4667C71.805-85.1049 70.2678-86.6214 67.7128-86.6214L62.5842-86.6214C62.3763-91.8279 58.1044-96.0235 52.8217-96.0235C47.5667-96.0235 43.2671-91.8279 43.0246-86.6214L37.896-86.6214C35.3686-86.6214 33.8384-85.1049 33.8384-82.4667L33.8384-77.482C33.8384-74.8714 35.3686-73.3272 37.896-73.3272ZM52.8217-82.0316C50.4058-82.0316 48.4467-84.0183 48.4467-86.4066C48.4467-88.8502 50.4058-90.7746 52.8217-90.7746C55.2376-90.7746 57.1621-88.8502 57.1621-86.4066C57.1621-84.0183 55.2376-82.0316 52.8217-82.0316Z"/>
  </g>
  <g id="Thin-M" transform="matrix(1 0 0 1 804.528 1126)">
   <path d="M40.5371-33.9423C40.3262-33.9423 40.0169-34.1413 39.7196-34.3139C35.013-36.8452 27.1656-43.4344 27.1656-50.6948C27.1656-54.9293 30.2186-58.1691 34.393-58.1691C37.1224-58.1691 39.4299-56.4223 40.5754-54.3445C41.7209-56.4223 43.9901-58.1691 46.6452-58.1691C50.8437-58.1691 53.9469-54.9293 53.9469-50.6948C53.9469-43.4344 45.9344-37.0126 41.4432-34.3139C41.0956-34.103 40.7721-33.9423 40.5371-33.9423ZM28.8442-18.752C27.9066-18.752 27.1536-19.505 27.1536-20.3923C27.1536-21.3179 27.9066-22.0205 28.8442-22.0205L74.9939-22.0205C75.8812-22.0205 76.6341-21.3179 76.6341-20.3923C76.6341-19.505 75.8812-18.752 74.9939-18.752ZM28.8442 0.416048C27.9186 0.416048 27.1536-0.298608 27.1536-1.2242C27.1536-2.11152 27.9066-2.86445 28.8442-2.86445L55.2103-2.86445C56.1479-2.86445 56.8505-2.11152 56.8505-1.2242C56.8505-0.298608 56.1359 0.416048 55.2103 0.416048ZM25.5848 19.8655L78.1909 19.8655C86.8476 19.8655 91.3268 15.3863 91.3268 6.74394L91.3268-70.1595C91.3268-78.7898 86.8476-83.3314 78.3111-83.3314L74.127-83.3314C74.127-83.1444 74.127-82.8952 74.127-82.7083L74.127-77.8215C74.127-73.4301 71.011-70.4048 66.5813-70.4048L37.1944-70.4048C32.7768-70.4048 29.6607-73.4301 29.6607-77.8215L29.6607-82.7083C29.6607-82.8952 29.6607-83.1444 29.6607-83.3314L25.4767-83.3314C16.9784-83.3314 12.4609-78.7898 12.4609-70.1595L12.4609 6.74394C12.4609 15.3863 16.9784 19.8655 25.5848 19.8655ZM37.1944-74.5493L66.5813-74.5493C68.7289-74.5493 69.9946-75.7766 69.9946-77.8215L69.9946-82.6024C69.9946-84.6976 68.7289-85.8746 66.5813-85.8746L60.5701-85.8746C60.498-90.6511 56.6561-94.5073 51.8939-94.5073C47.1819-94.5073 43.2897-90.6511 43.2057-85.8746L37.1944-85.8746C35.0971-85.8746 33.7932-84.6976 33.7932-82.6024L33.7932-77.8215C33.7932-75.7766 35.0971-74.5493 37.1944-74.5493ZM51.8939-81.3526C49.3874-81.3526 47.4057-83.3847 47.4057-85.8408C47.4057-88.3976 49.3874-90.3673 51.8939-90.3673C54.4003-90.3673 56.37-88.3976 56.37-85.8408C56.37-83.3847 54.4003-81.3526 51.8939-81.3526Z"/>
  </g>
  <g id="Ultralight-M" transform="matrix(1 0 0 1 508.292 1126)">
   <path d="M40.2589-34.974C40.0712-34.974 39.8198-35.1613 39.5689-35.2876C34.955-37.5407 26.8643-44.3849 26.8643-51.8539C26.8643-56.0304 29.9172-59.2703 34.0916-59.2703C36.8326-59.2703 39.1981-57.4655 40.3204-55.4688C41.4427-57.4655 43.7467-59.2703 46.425-59.2703C50.6002-59.2703 53.7151-56.0304 53.7151-51.8539C53.7151-44.3849 45.378-37.8471 41.0723-35.2876C40.7595-35.0998 40.4475-34.974 40.2589-34.974ZM28.1255-19.772C27.4313-19.772 26.8638-20.3395 26.8638-20.9718C26.8638-21.6656 27.4313-22.1712 28.1255-22.1712L74.7736-22.1712C75.4059-22.1712 75.9734-21.6656 75.9734-20.9718C75.9734-20.3395 75.4059-19.772 74.7736-19.772ZM28.1255-0.522846C27.4317-0.522846 26.8638-1.02886 26.8638-1.72263C26.8638-2.35493 27.4313-2.92241 28.1255-2.92241L54.7814-2.92241C55.4756-2.92241 55.9812-2.35493 55.9812-1.72263C55.9812-1.02886 55.4752-0.522846 54.7814-0.522846ZM25.0052 19.5178L77.8316 19.5178C86.071 19.5178 90.3763 15.2125 90.3763 7.03372L90.3763-70.6927C90.3763-78.871 86.071-83.2386 77.8358-83.2386L72.7592-83.2386C72.7592-83.0517 72.7592-82.8025 72.7592-82.6156L72.7592-77.9953C72.7592-74.1139 69.9446-71.4828 66.0017-71.4828L36.8351-71.4828C32.8927-71.4828 30.078-74.1139 30.078-77.9953L30.078-82.6156C30.078-82.8025 30.078-83.0517 30.078-83.2386L25.0014-83.2386C16.8277-83.2386 12.4609-78.871 12.4609-70.6927L12.4609 7.03372C12.4609 15.2125 16.8277 19.5178 25.0052 19.5178ZM36.8351-75.1752L66.0017-75.1752C67.9407-75.1752 69.0673-76.2403 69.0673-77.9953L69.0673-82.672C69.0673-84.4889 67.9407-85.4921 66.0017-85.4921L59.5384-85.4921C59.5359-90.0483 55.9142-93.7306 51.4186-93.7306C46.9849-93.7306 43.3013-90.0483 43.2984-85.4921L36.8351-85.4921C34.958-85.4921 33.77-84.4889 33.77-82.672L33.77-77.9953C33.77-76.2403 34.958-75.1752 36.8351-75.1752ZM51.4186-81.0049C48.8658-81.0049 46.8725-83.0601 46.8725-85.551C46.8725-88.1657 48.8658-90.1586 51.4186-90.1586C53.9714-90.1586 55.9643-88.1657 55.9643-85.551C55.9643-83.0601 53.9714-81.0049 51.4186-81.0049Z"/>
  </g>
  <g id="Black-S" transform="matrix(1 0 0 1 2888.09 696)">
   <path d="M37.3535-32.0312C36.9141-32.0312 36.4746-32.2266 36.1328-32.4707C35.4004-32.7637 28.2227-36.8164 28.2227-42.9199C28.2227-46.2891 30.5176-48.4375 33.1543-48.4375C35.2539-48.4375 36.7188-47.168 37.3535-46.0938C38.0371-47.168 39.4531-48.4375 41.5039-48.4375C44.2383-48.4375 46.4844-46.2891 46.4844-42.9199C46.4844-36.8164 39.2578-32.666 38.5742-32.4707C38.2324-32.2754 37.7441-32.0312 37.3535-32.0312ZM29.5898-19.1895C27.832-19.1895 26.5625-20.5078 26.5625-22.2168C26.5625-23.8281 27.832-25.0977 29.5898-25.0977L61.1328-25.0977C62.8418-25.0977 64.1113-23.8281 64.1113-22.2168C64.1113-20.5078 62.8418-19.1895 61.1328-19.1895ZM29.5898-4.00391C27.832-4.00391 26.5625-5.32227 26.5625-6.98242C26.5625-8.64258 27.832-9.91211 29.5898-9.91211L49.0234-9.91211C50.6836-9.91211 51.9531-8.64258 51.9531-6.98242C51.9531-5.32227 50.6836-4.00391 49.0234-4.00391ZM25.0977 10.9863L65.5273 10.9863C74.707 10.9863 80.8594 4.78516 80.8594-4.54102L80.8594-61.9141C80.8594-71.2402 74.707-77.4414 65.5273-77.4414L65.0879-77.4414C65.7715-76.123 66.1133-74.5605 66.1133-72.8516L66.1133-68.8477C66.1133-63.3301 62.4023-59.375 56.9336-59.375L33.6914-59.375C28.2227-59.375 24.5117-63.3301 24.5117-68.8477L24.5117-72.8516C24.5117-74.5605 24.8535-76.123 25.5371-77.4414L25.0977-77.4414C15.918-77.4414 9.76562-71.2402 9.76562-61.9141L9.76562-4.54102C9.76562 4.78516 15.918 10.9863 25.0977 10.9863ZM33.6914-64.2578L56.9336-64.2578C59.6191-64.2578 61.2305-65.9668 61.2305-68.8477L61.2305-72.8516C61.2305-75.7324 59.6191-77.4414 56.9336-77.4414L55.0293-77.4414C54.6387-82.4707 50.4883-86.4746 45.3125-86.4746C40.1367-86.4746 35.9863-82.4707 35.5957-77.4414L33.6914-77.4414C31.0059-77.4414 29.3945-75.7324 29.3945-72.8516L29.3945-68.8477C29.3945-65.9668 31.0059-64.2578 33.6914-64.2578ZM45.3125-73.4375C43.3105-73.4375 41.6992-75.0977 41.6992-77.0508C41.6992-79.0039 43.3105-80.6152 45.3125-80.6152C47.3145-80.6152 48.9258-79.0039 48.9258-77.0508C48.9258-75.0977 47.3145-73.4375 45.3125-73.4375Z"/>
  </g>
  <g id="Heavy-S" transform="matrix(1 0 0 1 2592.09 696)">
   <path d="M36.2587-31.7201C35.8653-31.7201 35.4259-31.9154 35.0726-32.1711C33.568-33.0864 26.8282-37.1967 26.8282-43.0352C26.8282-46.4389 29.1462-48.6795 31.9327-48.6795C34.0323-48.6795 35.5317-47.433 36.2472-46.1629C36.9999-47.433 38.4735-48.6795 40.5128-48.6795C43.397-48.6795 45.6777-46.4389 45.6777-43.0352C45.6777-37.1967 38.9351-32.9311 37.4333-32.1711C37.08-31.9642 36.6378-31.7201 36.2587-31.7201ZM28.5181-19.1088C26.8064-19.1088 25.5483-20.4041 25.5483-22.0785C25.5483-23.6668 26.8064-24.9248 28.5181-24.9248L60.7525-24.9248C62.4269-24.9248 63.6849-23.6668 63.6849-22.0785C63.6849-20.4041 62.4269-19.1088 60.7525-19.1088ZM28.5181-4.02696C26.8179-4.02696 25.5483-5.33379 25.5483-6.95937C25.5483-8.59648 26.8064-9.85449 28.5181-9.85449L48.0093-9.85449C49.6464-9.85449 50.9044-8.59648 50.9044-6.95937C50.9044-5.33379 49.6349-4.02696 48.0093-4.02696ZM24.3716 10.5484L64.8128 10.5484C73.762 10.5484 79.4303 4.84278 79.4303-4.2529L79.4303-61.649C79.4303-70.7332 73.762-76.4503 64.9281-76.4503L64.5347-76.4503C65.057-75.4085 65.3181-74.1687 65.3181-72.8285L65.3181-68.6517C65.3181-63.2148 61.6648-59.3174 56.2767-59.3174L32.9077-59.3174C27.5312-59.3174 23.8779-63.2148 23.8779-68.6517L23.8779-72.8285C23.8779-74.1687 24.139-75.4085 24.6612-76.4503L24.2679-76.4503C15.4224-76.4503 9.76562-70.7332 9.76562-61.649L9.76562-4.2529C9.76562 4.84278 15.4224 10.5484 24.3716 10.5484ZM32.9077-64.1771L56.2767-64.1771C58.8931-64.1771 60.4699-65.84 60.4699-68.6517L60.4699-72.6787C60.4699-75.4904 58.8931-77.1533 56.2767-77.1533L54.0728-77.1533C53.7052-82.0558 49.647-85.9675 44.598-85.9675C39.549-85.9675 35.4908-82.0558 35.1117-77.1533L32.9077-77.1533C30.2913-77.1533 28.7261-75.4904 28.7261-72.6787L28.7261-68.6517C28.7261-65.84 30.2913-64.1771 32.9077-64.1771ZM44.598-73.2301C42.6421-73.2301 41.0538-74.8556 41.0538-76.7742C41.0538-78.6927 42.6421-80.2695 44.598-80.2695C46.5538-80.2695 48.1306-78.6927 48.1306-76.7742C48.1306-74.8556 46.5538-73.2301 44.598-73.2301Z"/>
  </g>
  <g id="Bold-S" transform="matrix(1 0 0 1 2296.18 696)">
   <path d="M35.0342-31.3721C34.6924-31.3721 34.2529-31.5674 33.8867-31.8359C31.5186-33.4473 25.2686-37.6221 25.2686-43.1641C25.2686-46.6064 27.6123-48.9502 30.5664-48.9502C32.666-48.9502 34.2041-47.7295 35.0098-46.2402C35.8398-47.7295 37.3779-48.9502 39.4043-48.9502C42.4561-48.9502 44.7754-46.6064 44.7754-43.1641C44.7754-37.6221 38.5742-33.2275 36.1572-31.8359C35.791-31.6162 35.4004-31.3721 35.0342-31.3721ZM27.3193-19.0186C25.6592-19.0186 24.4141-20.2881 24.4141-21.9238C24.4141-23.4863 25.6592-24.7314 27.3193-24.7314L60.3271-24.7314C61.9629-24.7314 63.208-23.4863 63.208-21.9238C63.208-20.2881 61.9629-19.0186 60.3271-19.0186ZM27.3193-4.05273C25.6836-4.05273 24.4141-5.34668 24.4141-6.93359C24.4141-8.54492 25.6592-9.79004 27.3193-9.79004L46.875-9.79004C48.4863-9.79004 49.7314-8.54492 49.7314-6.93359C49.7314-5.34668 48.4619-4.05273 46.875-4.05273ZM23.5596 10.0586L64.0137 10.0586C72.7051 10.0586 77.832 4.90723 77.832-3.93066L77.832-61.3525C77.832-70.166 72.7051-75.3418 64.2578-75.3418L63.916-75.3418C64.2578-74.6094 64.4287-73.7305 64.4287-72.8027L64.4287-68.4326C64.4287-63.0859 60.8398-59.2529 55.542-59.2529L32.0312-59.2529C26.7578-59.2529 23.1689-63.0859 23.1689-68.4326L23.1689-72.8027C23.1689-73.7305 23.3398-74.6094 23.6816-75.3418L23.3398-75.3418C14.8682-75.3418 9.76562-70.166 9.76562-61.3525L9.76562-3.93066C9.76562 4.90723 14.8682 10.0586 23.5596 10.0586ZM32.0312-64.0869L55.542-64.0869C58.0811-64.0869 59.6191-65.6982 59.6191-68.4326L59.6191-72.4854C59.6191-75.2197 58.0811-76.8311 55.542-76.8311L53.0029-76.8311C52.6611-81.5918 48.7061-85.4004 43.7988-85.4004C38.8916-85.4004 34.9365-81.5918 34.5703-76.8311L32.0312-76.8311C29.4922-76.8311 27.9785-75.2197 27.9785-72.4854L27.9785-68.4326C27.9785-65.6982 29.4922-64.0869 32.0312-64.0869ZM43.7988-72.998C41.8945-72.998 40.332-74.585 40.332-76.4648C40.332-78.3447 41.8945-79.8828 43.7988-79.8828C45.7031-79.8828 47.2412-78.3447 47.2412-76.4648C47.2412-74.585 45.7031-72.998 43.7988-72.998Z"/>
  </g>
  <g id="Semibold-S" transform="matrix(1 0 0 1 2000.02 696)">
   <path d="M34.1899-31.1321C33.8837-31.1321 33.4442-31.3274 33.0691-31.6049C30.1056-33.6961 24.1933-37.9153 24.1933-43.2529C24.1933-46.722 26.5548-49.1368 29.6244-49.1368C31.724-49.1368 33.2888-47.9339 34.1566-46.2936C35.04-47.9339 36.6226-49.1368 38.64-49.1368C41.8073-49.1368 44.1533-46.722 44.1533-43.2529C44.1533-37.9153 38.3254-33.4319 35.2774-31.6049C34.9023-31.3763 34.5473-31.1321 34.1899-31.1321ZM26.4929-18.9563C24.8683-18.9563 23.632-20.2081 23.632-21.8172C23.632-23.3619 24.8683-24.5981 26.4929-24.5981L60.0339-24.5981C61.643-24.5981 62.8792-23.3619 62.8792-21.8172C62.8792-20.2081 61.643-18.9563 60.0339-18.9563ZM26.4929-4.07051C24.9016-4.07051 23.632-5.35557 23.632-6.91582C23.632-8.50938 24.8683-9.74561 26.4929-9.74561L46.093-9.74561C47.6865-9.74561 48.9228-8.50938 48.9228-6.91582C48.9228-5.35557 47.6532-4.07051 46.093-4.07051ZM22.9997 9.7209L63.4627 9.7209C71.9764 9.7209 76.7301 4.95166 76.7301-3.7085L76.7301-61.1481C76.7301-69.775 71.9764-74.5775 63.7957-74.5775L63.4895-74.5775C63.7068-74.0584 63.8155-73.4283 63.8155-72.785L63.8155-68.2815C63.8155-62.9971 60.2711-59.2085 55.0354-59.2085L31.427-59.2085C26.2246-59.2085 22.6802-62.9971 22.6802-68.2815L22.6802-72.785C22.6802-73.4283 22.7889-74.0584 23.0063-74.5775L22.7-74.5775C14.486-74.5775 9.76562-69.775 9.76562-61.1481L9.76562-3.7085C9.76562 4.95166 14.486 9.7209 22.9997 9.7209ZM31.427-64.0247L55.0354-64.0247C57.5212-64.0247 59.0326-65.6005 59.0326-68.2815L59.0326-72.3521C59.0326-75.0331 57.5212-76.6089 55.0354-76.6089L52.2653-76.6089C51.9413-81.2719 48.0573-85.0094 43.2479-85.0094C38.4384-85.0094 34.5544-81.2719 34.1971-76.6089L31.427-76.6089C28.9412-76.6089 27.4631-75.0331 27.4631-72.3521L27.4631-68.2815C27.4631-65.6005 28.9412-64.0247 31.427-64.0247ZM43.2479-72.8381C41.3791-72.8381 39.8344-74.3983 39.8344-76.2516C39.8344-78.1048 41.3791-79.6162 43.2479-79.6162C45.1166-79.6162 46.628-78.1048 46.628-76.2516C46.628-74.3983 45.1166-72.8381 43.2479-72.8381Z"/>
  </g>
  <g id="Medium-S" transform="matrix(1 0 0 1 1703.73 696)">
   <path d="M33.5498-30.9502C33.2705-30.9502 32.8311-31.1455 32.4492-31.4297C29.0342-33.8848 23.3779-38.1377 23.3779-43.3203C23.3779-46.8096 25.7529-49.2783 28.9102-49.2783C31.0098-49.2783 32.5947-48.0889 33.5098-46.334C34.4336-48.0889 36.0498-49.2783 38.0605-49.2783C41.3154-49.2783 43.6816-46.8096 43.6816-43.3203C43.6816-38.1377 38.1367-33.5869 34.6104-31.4297C34.2285-31.1943 33.9004-30.9502 33.5498-30.9502ZM25.8662-18.9092C24.2686-18.9092 23.0391-20.1475 23.0391-21.7363C23.0391-23.2676 24.2686-24.4971 25.8662-24.4971L59.8115-24.4971C61.4004-24.4971 62.6299-23.2676 62.6299-21.7363C62.6299-20.1475 61.4004-18.9092 59.8115-18.9092ZM25.8662-4.08398C24.3086-4.08398 23.0391-5.3623 23.0391-6.90234C23.0391-8.48242 24.2686-9.71191 25.8662-9.71191L45.5-9.71191C47.0801-9.71191 48.3096-8.48242 48.3096-6.90234C48.3096-5.3623 47.04-4.08398 45.5-4.08398ZM22.5752 9.46484L63.0449 9.46484C71.4238 9.46484 75.8945 4.98535 75.8945-3.54004L75.8945-60.9932C75.8945-69.4785 71.4238-73.998 63.4453-73.998L63.166-73.998C63.2891-73.6406 63.3506-73.1992 63.3506-72.7715L63.3506-68.167C63.3506-62.9297 59.8398-59.1748 54.6514-59.1748L30.9688-59.1748C25.8203-59.1748 22.3096-62.9297 22.3096-68.167L22.3096-72.7715C22.3096-73.1992 22.3711-73.6406 22.4941-73.998L22.2148-73.998C14.1963-73.998 9.76562-69.4785 9.76562-60.9932L9.76562-3.54004C9.76562 4.98535 14.1963 9.46484 22.5752 9.46484ZM30.9688-63.9775L54.6514-63.9775C57.0967-63.9775 58.5879-65.5264 58.5879-68.167L58.5879-72.251C58.5879-74.8916 57.0967-76.4404 54.6514-76.4404L51.7061-76.4404C51.3955-81.0293 47.5654-84.7129 42.8301-84.7129C38.0947-84.7129 34.2646-81.0293 33.9141-76.4404L30.9688-76.4404C28.5234-76.4404 27.0723-74.8916 27.0723-72.251L27.0723-68.167C27.0723-65.5264 28.5234-63.9775 30.9688-63.9775ZM42.8301-72.7168C40.9883-72.7168 39.457-74.2568 39.457-76.0898C39.457-77.9229 40.9883-79.4141 42.8301-79.4141C44.6719-79.4141 46.1631-77.9229 46.1631-76.0898C46.1631-74.2568 44.6719-72.7168 42.8301-72.7168Z"/>
  </g>
  <g id="Regular-S" transform="matrix(1 0 0 1 1407.56 696)">
   <path d="M32.7148-30.7129C32.4707-30.7129 32.0312-30.9082 31.6406-31.2012C27.6367-34.1309 22.3145-38.4277 22.3145-43.4082C22.3145-46.9238 24.707-49.4629 27.9785-49.4629C30.0781-49.4629 31.6895-48.291 32.666-46.3867C33.6426-48.291 35.3027-49.4629 37.3047-49.4629C40.6738-49.4629 43.0664-46.9238 43.0664-43.4082C43.0664-38.4277 37.8906-33.7891 33.7402-31.2012C33.3496-30.957 33.0566-30.7129 32.7148-30.7129ZM25.0488-18.8477C23.4863-18.8477 22.2656-20.0684 22.2656-21.6309C22.2656-23.1445 23.4863-24.3652 25.0488-24.3652L59.5215-24.3652C61.084-24.3652 62.3047-23.1445 62.3047-21.6309C62.3047-20.0684 61.084-18.8477 59.5215-18.8477ZM25.0488-4.10156C23.5352-4.10156 22.2656-5.37109 22.2656-6.88477C22.2656-8.44727 23.4863-9.66797 25.0488-9.66797L44.7266-9.66797C46.2891-9.66797 47.5098-8.44727 47.5098-6.88477C47.5098-5.37109 46.2402-4.10156 44.7266-4.10156ZM22.0215 9.13086L62.5 9.13086C70.7031 9.13086 74.8047 5.0293 74.8047-3.32031L74.8047-60.791C74.8047-69.0918 70.7031-73.2422 62.9883-73.2422L62.7441-73.2422C62.7441-73.0957 62.7441-72.9004 62.7441-72.7539L62.7441-68.0176C62.7441-62.8418 59.2773-59.1309 54.1504-59.1309L30.3711-59.1309C25.293-59.1309 21.8262-62.8418 21.8262-68.0176L21.8262-72.7539C21.8262-72.9004 21.8262-73.0957 21.8262-73.2422L21.582-73.2422C13.8184-73.2422 9.76562-69.0918 9.76562-60.791L9.76562-3.32031C9.76562 5.0293 13.8184 9.13086 22.0215 9.13086ZM30.3711-63.916L54.1504-63.916C56.543-63.916 58.0078-65.4297 58.0078-68.0176L58.0078-72.1191C58.0078-74.707 56.543-76.2207 54.1504-76.2207L50.9766-76.2207C50.6836-80.7129 46.9238-84.3262 42.2852-84.3262C37.6465-84.3262 33.8867-80.7129 33.5449-76.2207L30.3711-76.2207C27.9785-76.2207 26.5625-74.707 26.5625-72.1191L26.5625-68.0176C26.5625-65.4297 27.9785-63.916 30.3711-63.916ZM42.2852-72.5586C40.4785-72.5586 38.9648-74.0723 38.9648-75.8789C38.9648-77.6855 40.4785-79.1504 42.2852-79.1504C44.0918-79.1504 45.5566-77.6855 45.5566-75.8789C45.5566-74.0723 44.0918-72.5586 42.2852-72.5586Z"/>
  </g>
  <g id="Light-S" transform="matrix(1 0 0 1 1111.47 696)">
   <path d="M32.3516-32.06C32.1377-32.06 31.7739-32.2402 31.4438-32.4726C27.561-35.0391 21.9209-39.6689 21.9209-44.9219C21.9209-48.3618 24.3135-50.9009 27.585-50.9009C29.6997-50.9009 31.3867-49.6533 32.333-47.855C33.2793-49.6533 34.9849-50.9009 37.0171-50.9009C40.356-50.9009 42.7637-48.3618 42.7637-44.9219C42.7637-39.6689 37.1641-34.8789 33.2559-32.4726C32.9106-32.2588 32.6328-32.06 32.3516-32.06ZM24.1104-20.1797C22.8657-20.1797 21.8872-21.1582 21.8872-22.3877C21.8872-23.5986 22.8657-24.562 24.1104-24.562L59.2339-24.562C60.4634-24.562 61.4419-23.5986 61.4419-22.3877C61.4419-21.1582 60.4634-20.1797 59.2339-20.1797ZM24.1104-5.32763C22.8994-5.32763 21.8872-6.3247 21.8872-7.53564C21.8872-8.76513 22.8657-9.74365 24.1104-9.74365L44.1665-9.74365C45.4111-9.74365 46.3745-8.76513 46.3745-7.53564C46.3745-6.3247 45.3774-5.32763 44.1665-5.32763ZM21.2647 8.67676L62.0308 8.67676C69.689 8.67676 73.5635 4.80225 73.5635-2.9419L73.5635-61.4873C73.5635-69.1978 69.689-73.1211 62.3677-73.1211L60.958-73.1211C60.958-72.9746 60.958-72.7793 60.958-72.6328L60.958-68.2446C60.958-63.7349 57.8848-60.5386 53.3936-60.5386L29.9019-60.5386C25.4443-60.5386 22.3711-63.7349 22.3711-68.2446L22.3711-72.6328C22.3711-72.7793 22.3711-72.9746 22.3711-73.1211L20.9614-73.1211C13.6216-73.1211 9.76562-69.1978 9.76562-61.4873L9.76562-2.9419C9.76562 4.80225 13.6216 8.67676 21.2647 8.67676ZM29.9019-64.7334L53.3936-64.7334C55.5137-64.7334 56.7969-66.0352 56.7969-68.2446L56.7969-72.21C56.7969-74.4346 55.5137-75.7212 53.3936-75.7212L49.6294-75.7212C49.4273-79.9258 45.9551-83.312 41.6646-83.312C37.3892-83.312 33.9019-79.9258 33.666-75.7212L29.9019-75.7212C27.7969-75.7212 26.5322-74.4346 26.5322-72.21L26.5322-68.2446C26.5322-66.0352 27.7969-64.7334 29.9019-64.7334ZM41.6646-72.1045C39.7974-72.1045 38.2686-73.6484 38.2686-75.5005C38.2686-77.3828 39.7974-78.8779 41.6646-78.8779C43.5317-78.8779 45.0269-77.3828 45.0269-75.5005C45.0269-73.6484 43.5317-72.1045 41.6646-72.1045Z"/>
  </g>
  <g id="Thin-S" transform="matrix(1 0 0 1 815.578 696)">
   <path d="M31.8711-33.8418C31.6973-33.8418 31.4336-34.0019 31.1836-34.1543C27.4609-36.2402 21.4004-41.3105 21.4004-46.9238C21.4004-50.2636 23.793-52.8027 27.0645-52.8027C29.1992-52.8027 30.9863-51.4551 31.8926-49.7968C32.7988-51.4551 34.5645-52.8027 36.6367-52.8027C39.9356-52.8027 42.3633-50.2636 42.3633-46.9238C42.3633-41.3105 36.2031-36.3203 32.6152-34.1543C32.3301-33.9804 32.0723-33.8418 31.8711-33.8418ZM22.8692-21.9414C22.0449-21.9414 21.3867-22.5996 21.3867-23.3887C21.3867-24.1992 22.0449-24.8223 22.8692-24.8223L58.8535-24.8223C59.6426-24.8223 60.3008-24.1992 60.3008-23.3887C60.3008-22.5996 59.6426-21.9414 58.8535-21.9414ZM22.8692-6.9492C22.0586-6.9492 21.3867-7.58592 21.3867-8.39647C21.3867-9.18554 22.0449-9.84375 22.8692-9.84375L43.4258-9.84375C44.25-9.84375 44.8731-9.18554 44.8731-8.39647C44.8731-7.58592 44.2363-6.9492 43.4258-6.9492ZM20.2637 8.07618L61.4102 8.07618C68.3477 8.07618 71.9219 4.50196 71.9219-2.44141L71.9219-62.4082C71.9219-69.3379 68.3477-72.9609 61.5469-72.9609L58.5957-72.9609C58.5957-72.8145 58.5957-72.6191 58.5957-72.4727L58.5957-68.5449C58.5957-64.916 56.043-62.4004 52.3926-62.4004L29.2813-62.4004C25.6445-62.4004 23.0918-64.916 23.0918-68.5449L23.0918-72.4727C23.0918-72.6191 23.0918-72.8145 23.0918-72.9609L20.1406-72.9609C13.3613-72.9609 9.76562-69.3379 9.76562-62.4082L9.76562-2.44141C9.76562 4.50196 13.3613 8.07618 20.2637 8.07618ZM29.2813-65.8144L52.3926-65.8144C54.1524-65.8144 55.1953-66.8359 55.1953-68.5449L55.1953-72.3301C55.1953-74.0742 54.1524-75.0606 52.3926-75.0606L47.8477-75.0606C47.7656-78.8848 44.6738-81.9707 40.8438-81.9707C37.0488-81.9707 33.9219-78.8848 33.8262-75.0606L29.2813-75.0606C27.5566-75.0606 26.4922-74.0742 26.4922-72.3301L26.4922-68.5449C26.4922-66.8359 27.5566-65.8144 29.2813-65.8144ZM40.8438-71.5039C38.8965-71.5039 37.3477-73.0879 37.3477-75C37.3477-76.9824 38.8965-78.5176 40.8438-78.5176C42.791-78.5176 44.3262-76.9824 44.3262-75C44.3262-73.0879 42.791-71.5039 40.8438-71.5039Z"/>
  </g>
  <g id="Ultralight-S" transform="matrix(1 0 0 1 519.288 696)">
   <path d="M31.625-34.7544C31.4717-34.7544 31.2593-34.9043 31.0503-35.0156C27.4097-36.8554 21.1338-42.1513 21.1338-47.9492C21.1338-51.2378 23.5264-53.7768 26.7979-53.7768C28.9429-53.7768 30.7813-52.3779 31.667-50.7915C32.5527-52.3779 34.3491-53.7768 36.4419-53.7768C39.7202-53.7768 42.1582-51.2378 42.1582-47.9492C42.1582-42.1513 35.711-37.0586 32.2871-35.0156C32.0327-34.8623 31.7852-34.7544 31.625-34.7544ZM22.2334-22.8437C21.6245-22.8437 21.1304-23.3379 21.1304-23.9013C21.1304-24.5068 21.6245-24.9556 22.2334-24.9556L58.6587-24.9556C59.2222-24.9556 59.7163-24.5068 59.7163-23.9013C59.7163-23.3379 59.2222-22.8437 58.6587-22.8437ZM22.2334-7.77976C21.6279-7.77976 21.1304-8.23191 21.1304-8.83739C21.1304-9.40087 21.6245-9.89502 22.2334-9.89502L43.0464-9.89502C43.6553-9.89502 44.104-9.40087 44.104-8.83739C44.104-8.23191 43.6519-7.77976 43.0464-7.77976ZM19.751 7.76857L61.0923 7.76857C67.6607 7.76857 71.0811 4.34815 71.0811-2.18507L71.0811-62.8799C71.0811-69.4097 67.6607-72.8789 61.1265-72.8789L57.3858-72.8789C57.3858-72.7324 57.3858-72.5371 57.3858-72.3906L57.3858-68.6987C57.3858-65.521 55.0996-63.354 51.8799-63.354L28.9634-63.354C25.7471-63.354 23.4609-65.521 23.4609-68.6987L23.4609-72.3906C23.4609-72.5371 23.4609-72.7324 23.4609-72.8789L19.7202-72.8789C13.228-72.8789 9.76562-69.4097 9.76562-62.8799L9.76562-2.18507C9.76562 4.34815 13.228 7.76857 19.751 7.76857ZM28.9634-66.3681L51.8799-66.3681C53.4551-66.3681 54.375-67.2461 54.375-68.6987L54.375-72.3916C54.375-73.8897 53.4551-74.7222 51.8799-74.7222L46.9351-74.7222C46.9146-78.3516 44.0176-81.2837 40.4234-81.2837C36.8745-81.2837 33.9321-78.3516 33.9082-74.7222L28.9634-74.7222C27.4336-74.7222 26.4717-73.8897 26.4717-72.3916L26.4717-68.6987C26.4717-67.2461 27.4336-66.3681 28.9634-66.3681ZM40.4234-71.1963C38.4351-71.1963 36.876-72.8008 36.876-74.7437C36.876-76.7774 38.4351-78.333 40.4234-78.333C42.4116-78.333 43.9673-76.7774 43.9673-74.7437C43.9673-72.8008 42.4116-71.1963 40.4234-71.1963Z"/>
  </g>
 </g>
</svg>
